<?xml version="1.0" ?><svg height="512" id="svg2" version="1.1" width="512" xmlns="http://www.w3.org/2000/svg" xmlns:cc="http://creativecommons.org/ns#" xmlns:dc="http://purl.org/dc/elements/1.1/" xmlns:inkscape="http://www.inkscape.org/namespaces/inkscape" xmlns:rdf="http://www.w3.org/1999/02/22-rdf-syntax-ns#" xmlns:sodipodi="http://sodipodi.sourceforge.net/DTD/sodipodi-0.dtd" xmlns:svg="http://www.w3.org/2000/svg"><defs id="defs4"/><g id="layer1" transform="translate(0,-540.36218)"><g id="g4305"><g id="g4345" transform="translate(28,-40.00001)"><path d="M 255.34375 15.96875 C 214.76377 16.039919 173.66554 26.410038 136 48.15625 C 21.20977 114.43042 -18.117917 261.20978 48.15625 376 C 114.43042 490.79022 261.20977 530.11792 376 463.84375 C 490.79023 397.56958 530.11792 250.79022 463.84375 136 C 419.31579 58.875319 338.43608 15.823022 255.34375 15.96875 z M 342.84375 43.0625 C 371.67389 54.79845 396.92102 71.79385 417.84375 92.53125 L 334.21875 177.1875 C 324.15411 167.18935 311.99295 158.99003 298.125 153.3125 L 342.84375 43.0625 z M 256 154.96875 C 311.65643 154.96875 356.96875 200.21174 356.96875 256 C 356.96875 311.78826 311.65643 357.0625 256 357.0625 C 200.34357 357.0625 155.03125 311.78826 155.03125 256 C 155.03125 200.21174 200.34357 154.96875 256 154.96875 z M 256 165.0625 C 205.61775 165.0625 164.96875 205.74958 164.96875 256 C 164.96875 306.25041 205.61775 346.96875 256 346.96875 C 306.38225 346.96875 347.03125 306.25041 347.03125 256 C 347.03125 205.74958 306.38225 165.0625 256 165.0625 z M 256 224 C 273.67311 224 288 238.32689 288 256 C 288 273.67311 273.67311 288 256 288 C 238.32689 288 224 273.67311 224 256 C 224 238.32689 238.32689 224 256 224 z M 227.125 380.1875 C 230.05871 380.18758 232.72526 380.41047 235.125 380.84375 C 237.52465 381.27717 239.63691 381.7762 241.4375 382.34375 C 243.23798 382.91145 244.7381 383.49465 245.9375 384.09375 C 247.13678 384.69298 247.99611 385.16641 248.53125 385.5 L 244.03125 398.09375 C 241.897 396.96058 239.39549 395.98813 236.5625 395.1875 C 233.7294 394.38698 230.53649 394.00006 226.9375 394 C 224.53674 394.00006 222.17497 394.38698 219.875 395.1875 C 217.57496 395.98813 215.54819 397.29558 213.78125 399.0625 C 212.01426 400.82952 210.59731 403.10682 209.53125 405.90625 C 208.46515 408.70577 207.93748 412.09396 207.9375 416.09375 C 207.93748 419.29406 208.26885 422.2956 208.96875 425.0625 C 209.66859 427.8295 210.80841 430.1876 212.375 432.1875 C 213.94155 434.1874 215.99826 435.7708 218.53125 436.9375 C 221.06417 438.1043 224.11763 438.6875 227.71875 438.6875 C 229.98514 438.6875 232.01294 438.5791 233.8125 438.3125 C 235.61197 438.046 237.22419 437.71105 238.625 437.34375 C 240.0257 436.97655 241.24637 436.56065 242.3125 436.09375 C 243.37853 435.62685 244.352 435.2113 245.21875 434.8125 L 249.53125 447.3125 C 247.33189 448.6451 244.21853 449.83915 240.21875 450.90625 C 236.21886 451.97335 231.57979 452.5 226.3125 452.5 C 215.04538 452.5 206.46254 449.36105 200.5625 443.09375 C 194.66242 436.82655 191.71874 427.93782 191.71875 416.40625 C 191.71874 410.67102 192.63696 405.56185 194.4375 401.0625 C 196.23803 396.56325 198.7106 392.75689 201.84375 389.65625 C 204.97687 386.55573 208.69773 384.19396 213.03125 382.59375 C 217.36471 380.99368 222.05905 380.18758 227.125 380.1875 z M 280.875 381 C 286.80758 381.00007 292.19722 381.66747 297.03125 383 C 301.86518 384.33267 306.0019 386.44594 309.46875 389.3125 C 312.93549 392.17917 315.60203 395.8458 317.46875 400.3125 C 319.33534 404.7793 320.28118 410.13798 320.28125 416.40625 C 320.28118 422.40602 319.33534 427.62705 317.46875 432.09375 C 315.60203 436.56055 312.96442 440.2548 309.53125 443.1875 C 306.09797 446.1203 301.90238 448.3456 296.96875 449.8125 C 292.03503 451.2793 286.509 452 280.375 452 C 277.57549 452 274.2958 451.88915 270.5625 451.65625 C 266.82917 451.42325 263.16356 450.922 259.5625 450.1875 L 259.5625 382.6875 C 263.16356 382.02025 266.91234 381.57677 270.8125 381.34375 C 274.71262 381.11087 278.07549 381.00007 280.875 381 z M 281.65625 394.3125 C 280.59014 394.31255 279.50819 394.31025 278.375 394.34375 C 277.24175 394.37735 276.1572 394.46156 275.15625 394.59375 L 275.15625 438.40625 C 275.89068 438.47325 276.75234 438.5289 277.71875 438.5625 C 278.68511 438.5965 279.82362 438.59375 281.15625 438.59375 C 288.9565 438.59375 294.76432 436.6213 298.53125 432.6875 C 302.29808 428.7538 304.18744 423.33782 304.1875 416.40625 C 304.18744 409.13904 302.38126 403.63962 298.78125 399.90625 C 295.18115 396.17299 289.4565 394.31255 281.65625 394.3125 z " id="path3847" style="color:#000000;fill:#222222;fill-opacity:1;fill-rule:nonzero;stroke:none;stroke-width:40;marker:none;visibility:visible;display:inline;overflow:visible;enable-background:accumulate" transform="translate(-28,580.36219)"/><g id="text4109" style="font-size:550px;font-style:normal;font-variant:normal;font-weight:normal;font-stretch:normal;text-align:start;line-height:125%;letter-spacing:0px;word-spacing:0px;writing-mode:lr-tb;text-anchor:start;fill:#ffffff;fill-opacity:1;stroke:none;font-family:Ubuntu;-inkscape-font-specification:Ubuntu"/></g></g></g></svg>